# xmcd
#
# Track frame offsets: 
#        150
#        9887
#        39970
#        54255
#        72272
#        85570
#        97995
#        118437
#        134527
#        150870
#        172167
#        185800
#        200620
#        220515
#
# Disc length: 3047 seconds
#
# Revision: 1
# Processed by: cddbd v1.5.1PL2 Copyright (c) Steve Scherf et al.
# Submitted via: ExactAudioCopy v0.95b3
#
DISCID=b50be50e
DTITLE=Rampage - Scouts Honor...By Way Of Blood
DYEAR=1997
DGENRE=Rap
TTITLE0=Rampage - Intro
TTITLE1=Rampage - Flipmode Iz Da Squad
TTITLE2=Rampage - Da Night B4 My Shit Drop
TTITLE3=Rampage - Talk Of The Town
TTITLE4=Rampage - Get The Money And Dip
TTITLE5=Rampage - The Set Up
TTITLE6=Rampage - Wild For Da Night
TTITLE7=Rampage - Flipmode Enemy Number 1
TTITLE8=Rampage - Take It To The Streets
TTITLE9=Rampage - Conquer Da World
TTITLE10=Rampage - Hall Of Fame
TTITLE11=Rampage - Niggaz Iz Bad
TTITLE12=Rampage - We Getz Down (rmx)
TTITLE13=Rampage - Outro
EXTD=
EXTT0=
EXTT1=
EXTT2=
EXTT3=
EXTT4=
EXTT5=
EXTT6=
EXTT7=
EXTT8=
EXTT9=
EXTT10=
EXTT11=
EXTT12=
EXTT13=
PLAYORDER=
